<?xml version="1.0" encoding="utf-8"?>
<!-- Generator: Adobe Illustrator 25.4.1, SVG Export Plug-In . SVG Version: 6.00 Build 0)  -->
<svg version="1.1" id="svg8" xmlns:svg="http://www.w3.org/2000/svg"
	 xmlns="http://www.w3.org/2000/svg" xmlns:xlink="http://www.w3.org/1999/xlink" x="0px" y="0px" viewBox="0 0 461 462"
	 style="enable-background:new 0 0 461 462;" xml:space="preserve">
<style type="text/css">
	.st0{fill-rule:evenodd;clip-rule:evenodd;fill:#ED1C24;stroke:#ED1C24;stroke-width:5;stroke-miterlimit:10;}
</style>
<g id="layer2">
	<path id="path828" vector-effect="none" class="st0" d="M232.4,6.2C108.6,6.2,8.1,106.8,8.1,230.5S108.6,455,232.4,454.9
		c46,0,90.8-14.3,128.4-40.7c4.9-3.3,6.3-9.9,3-14.8c-3.3-4.9-9.9-6.3-14.8-3c-0.2,0.1-0.3,0.2-0.5,0.3
		c-34,23.9-74.6,36.8-116.1,36.8c-112.2,0.1-203-90.8-203-203s90.8-203,203-203s203,90.8,203,203c0,41.6-12.8,82.2-36.7,116.2
		c-3.5,4.8-2.4,11.5,2.4,14.9c4.8,3.5,11.5,2.4,14.9-2.4c0.1-0.1,0.1-0.2,0.2-0.3c26.4-37.7,40.5-82.5,40.6-128.5
		C456.8,106.8,356.2,6.2,232.4,6.2z M232.4,48.9c-23.4,0-46.5,4.6-68.1,13.4c-5.5,2.2-8.1,8.5-5.9,13.9c2.2,5.5,8.5,8.1,13.9,5.9
		c19.1-7.8,39.5-11.8,60.1-11.8c88.6,0,160.3,71.6,160.3,160.3S321,390.8,232.4,390.8S72.1,319.2,72.2,230.5c0-20.6,4-41,11.8-60.1
		c2.2-5.5-0.4-11.7-5.9-13.9c-5.5-2.2-11.7,0.4-13.9,5.9c0,0,0,0,0,0c-8.8,21.6-13.4,44.8-13.4,68.1c0,100.2,81.4,181.6,181.6,181.6
		c100.2,0,181.6-81.4,181.6-181.6C414,130.4,332.6,48.9,232.4,48.9z M191,134.5c-18.1-0.7-33.4,14-33.4,32.1v128.2
		c0,24.4,27.6,40,48.5,27.5L313,258.1c20.4-12.2,20.4-42.8,0-55l-106.8-64C201.6,136.3,196.4,134.7,191,134.5z M190.1,155.8
		c1.8,0.1,3.5,0.6,5,1.5c0,0,0,0,0,0L302,221.4c7.3,4.4,7.3,13.9,0,18.3l-106.8,64.1c-7.6,4.6-16.2-0.3-16.2-9.1V166.5
		C179,160.3,183.9,155.5,190.1,155.8z M383.7,370.9c-2.9,0-5.7,1.1-7.7,3.1c-4.2,4.2-4.2,10.9,0,15.1c0,0,0,0,0,0
		c4.2,4.2,10.9,4.2,15.1,0c0,0,0,0,0,0c4.2-4.2,4.2-10.9,0-15.1c0,0,0,0,0,0C389.1,372.1,386.4,371,383.7,370.9z"/>
</g>
</svg>
